<mxfile host="app.diagrams.net" modified="2024-02-15T19:14:11.799Z" agent="Mozilla/5.0 (Windows NT 10.0; Win64; x64) AppleWebKit/537.36 (KHTML, like Gecko) Chrome/121.0.0.0 Safari/537.36" version="23.1.5" etag="qTTA1R0u_WCxcQURBP0g" type="github">
  <diagram name="Page-1" id="-KQUmwm6wPl6Iul_k7RC">
    <mxGraphModel>
      <root>
        <mxCell id="0" />
        <mxCell id="1" parent="0" />
      </root>
    </mxGraphModel>
  </diagram>
</mxfile>
